<svg width="84" height="47" viewBox="0 0 84 47" fill="none" xmlns="http://www.w3.org/2000/svg">
<path d="M17.2642 47H0.764205V0.454544H17.4006C22.0824 0.454544 26.1127 1.38636 29.4915 3.25C32.8703 5.09848 35.4688 7.75757 37.2869 11.2273C39.1203 14.697 40.0369 18.8485 40.0369 23.6818C40.0369 28.5303 39.1203 32.697 37.2869 36.1818C35.4688 39.6667 32.8551 42.3409 29.446 44.2045C26.0521 46.0682 21.9915 47 17.2642 47ZM10.6051 38.5682H16.8551C19.7642 38.5682 22.2112 38.053 24.196 37.0227C26.196 35.9773 27.696 34.3636 28.696 32.1818C29.7112 29.9848 30.2188 27.1515 30.2188 23.6818C30.2188 20.2424 29.7112 17.4318 28.696 15.25C27.696 13.0682 26.2036 11.4621 24.2188 10.4318C22.2339 9.40151 19.7869 8.88636 16.8778 8.88636H10.6051V38.5682Z" fill="#BBFF2C"/>
<path d="M44.483 47V0.454544H54.3239V20.9773H54.9375L71.6875 0.454544H83.483L66.2102 21.2955L83.6875 47H71.9148L59.1648 27.8636L54.3239 33.7727V47H44.483Z" fill="#BBFF2C"/>
</svg>
